# xmcd CD database file
#
# Track frame offsets:
#	150
#	13969
#	34278
#	53449
#	74978
#	100335
#	124323
#	155037
#	176976
#	200207
#	219986
#	251405
#
# Disc length: 3737 seconds
#
# Revision: 0
# Processed by: cddbd v1.5.2PL0 Copyright (c) Steve Scherf et al.
# Submitted via: CDex 1.70beta2
#
DISCID=be0e970c
DTITLE=Jabberloop - Infinite Works
DYEAR=2008
DGENRE=Jazz
TTITLE0=Into The Infinite Jazz
TTITLE1=Behind The Wind
TTITLE2=Because, It is There
TTITLE3=Smells Like Teens Spirits feat. Karen Aoki
TTITLE4=6th Cintinent
TTITLE5=Red Bath - Jean- Francois Maljean
TTITLE6=Atmosphere Entry
TTITLE7=in groove
TTITLE8=My Favorite Things feat.Karen Aoki
TTITLE9=Spartacus - Jean Francois Maljean
TTITLE10=Interlude feat.Masami Watanabe
TTITLE11=Ugetsu
EXTD=YEAR: 2008
EXTT0=
EXTT1=
EXTT2=
EXTT3=
EXTT4=
EXTT5=
EXTT6=
EXTT7=
EXTT8=
EXTT9=
EXTT10=
EXTT11=
PLAYORDER=
